# xmcd CD database file
#
# Track frame offsets:
#	150
#	19133
#	37915
#	56338
#	70135
#
# Disc length: 1029 seconds
#
# Revision: 0
# Processed by: cddbd v1.5PL3 Copyright (c) Steve Scherf et al.
# Submitted via: CDex 1.50
#
DISCID=36040305
DTITLE=babamania - Pau Hana
DYEAR=2000
DGENRE=Blues
TTITLE0=Pau Hana
TTITLE1=Eightball happiness
TTITLE2=God Mixxx
TTITLE3=China Vase
TTITLE4=・・・・
EXTD=YEAR: 2000
EXTT0=
EXTT1=
EXTT2=
EXTT3=
EXTT4=
PLAYORDER=
